{"title":"Guardians of the Galaxy Vol-2 2017 720p HD-TS x264-24HD","magnet":"magnet:?xt=urn:btih:5497b2f2e54f14b364a808d57d69b1f90ec991db&dn=Guardians+of+the+Galaxy+Vol-2+2017+720p+HD-TS+x264-24HD&tr=udp%3A%2F%2Ftracker.leechers-paradise.org%3A6969&tr=udp%3A%2F%2Fzer0day.ch%3A1337&tr=udp%3A%2F%2Fopen.demonii.com%3A1337&tr=udp%3A%2F%2Ftracker.coppersurfer.tk%3A6969&tr=udp%3A%2F%2Fexodus.desync.com%3A6969","uploader":"makintos13","categoryP":"video","categoryS":"movies","size":"3139961130","seeders":"154","leechers":"282","description":"screens:\r\n <a href=\"\nhttps://imgmak.com/z1y\" rel=\"nofollow\" target=\"_NEW\">\nhttps://imgmak.com/z1y</a>\r\n <a href=\"\nhttps://imgmak.com/z16\" rel=\"nofollow\" target=\"_NEW\">\nhttps://imgmak.com/z16</a>\r\n <a href=\"\nhttps://imgmak.com/z19\" rel=\"nofollow\" target=\"_NEW\">\nhttps://imgmak.com/z19</a>\r\n <a href=\"\nhttps://imgmak.com/z1M\" rel=\"nofollow\" target=\"_NEW\">\nhttps://imgmak.com/z1M</a>\r\n\r\n\r\nGuardians of the Galaxy Vol-2 2017 720p HD-TS x264-24HD \r\n\r\nSource: V- Russian1080p A- FM \r\nAll Credit Goes to tourn171 for syncing Audio on it. \r\n\r\nFormat                      : Matroska \r\nFormat version              : Version 4 / Version 2 \r\nFile size                   : 2.92 GiB \r\nDuration                    : 2 h 7 min \r\nOverall bit rate mode       : Variable \r\nOverall bit rate            : 3 274 kb/s \r\nEncoded date                : UTC 2017-06-16 19:10:54 \r\nWriting application         : mkvmerge v9.9.0 (&apos;Pick Up&apos;) 64bit \r\nWriting library             : libebml v1.3.4 + libmatroska v1.4.5 \r\n\r\nVideo \r\nID                          : 1 \r\nFormat                      : AVC \r\nFormat/Info                 : Advanced Video Codec \r\nFormat profile              : <a class=\"__cf_email__\" href=\"/cdn-cgi/l/email-protection\" data-cfemail=\"aae2c3cdc2eae69e8498\">[email&#xA0;protected]</a><script data-cfhash=\"f9e31\" type=\"text/javascript\">/* <![CDATA[ */!function(t,e,r,n,c,a,p){try{t=document.currentScript||function(){for(t=document.getElementsByTagName('script'),e=t.length;e--;)if(t[e].getAttribute('data-cfhash'))return t[e]}();if(t&&(c=t.previousSibling)){p=t.parentNode;if(a=c.getAttribute('data-cfemail')){for(e='',r='0x'+a.substr(0,2)|0,n=2;a.length-n;n+=2)e+='%'+('0'+('0x'+a.substr(n,2)^r).toString(16)).slice(-2);p.replaceChild(document.createTextNode(decodeURIComponent(e)),c)}p.removeChild(t)}}catch(u){}}()/* ]]> */</script> \r\nFormat settings, CABAC      : Yes \r\nFormat settings, ReFrames   : 4 frames \r\nCodec ID                    : V_MPEG4/ISO/AVC \r\nDuration                    : 2 h 7 min \r\nBit rate mode               : Variable \r\nBit rate                    : 3 080 kb/s \r\nMaximum bit rate            : 62.5 Mb/s \r\nWidth                       : 1 280 pixels \r\nHeight                      : 508 pixels \r\nDisplay aspect ratio        : 2.520 \r\nFrame rate mode             : Constant \r\nFrame rate                  : 29.970 (30000/1001) FPS \r\nColor space                 : YUV \r\nChroma subsampling          : 4:2:0 \r\nBit depth                   : 8 bits \r\nScan type                   : Progressive \r\nBits/(Pixel*Frame)          : 0.158 \r\nStream size                 : 2.75 GiB (94%) \r\nDefault                     : Yes \r\nForced                      : No \r\nColor range                 : Full \r\nColor primaries             : BT.709 \r\nTransfer characteristics    : BT.709 \r\nMatrix coefficients         : BT.709 \r\n\r\nAudio \r\nID                          : 2 \r\nFormat                      : MPEG Audio \r\nFormat version              : Version 1 \r\nFormat profile              : Layer 3 \r\nCodec ID                    : A_MPEG/L3 \r\nCodec ID/Hint               : MP3 \r\nDuration                    : 2 h 7 min \r\nBit rate mode               : Constant \r\nBit rate                    : 192 kb/s \r\nChannel(s)                  : 2 channels \r\nSampling rate               : 44.1 kHz \r\nFrame rate                  : 38.281 FPS (1152 spf) \r\nCompression mode            : Lossy \r\nDelay relative to video     : 21 ms \r\nStream size                 : 176 MiB (6%) \r\nWriting library             : LAME3.99.5 \r\nDefault                     : Yes \r\nForced                      : No","last_updated":"2017-06-19T12:04:17.119Z","parsed":{"xt":"urn:btih:5497b2f2e54f14b364a808d57d69b1f90ec991db","dn":"Guardians of the Galaxy Vol-2 2017 720p HD-TS x264-24HD","tr":["udp://exodus.desync.com:6969","udp://open.demonii.com:1337","udp://tracker.coppersurfer.tk:6969","udp://tracker.leechers-paradise.org:6969","udp://zer0day.ch:1337"],"infoHash":"5497b2f2e54f14b364a808d57d69b1f90ec991db","infoHashBuffer":{"type":"Buffer","data":[84,151,178,242,229,79,20,179,100,168,8,213,125,105,177,249,14,201,145,219]},"name":"Guardians of the Galaxy Vol-2 2017 720p HD-TS x264-24HD","announce":["udp://exodus.desync.com:6969","udp://open.demonii.com:1337","udp://tracker.coppersurfer.tk:6969","udp://tracker.leechers-paradise.org:6969","udp://zer0day.ch:1337"],"urlList":[]}}